<svg width="66" height="66" viewBox="0 0 66 66" fill="none" xmlns="http://www.w3.org/2000/svg">
<rect width="66" height="66" rx="4.19048" fill="black"/>
<g clip-path="url(#clip0_8636_968)">
<path d="M48.8586 52.2626C46.1123 52.2626 42.5355 52.3144 41.1344 52.4663C40.8233 52.5175 40.7697 51.9061 41.1849 51.8038C42.429 51.4985 43.8301 51.4985 44.453 51.1429C45.54 50.5322 45.8541 49.3103 45.2313 34.0412C45.0244 29.4601 44.9716 26.9154 44.8682 23.8616C44.8682 23.6585 44.4016 23.6585 44.3488 23.7601C41.5488 30.376 36.8827 40.861 32.0082 52.822C31.852 53.1792 30.971 53.0755 30.9212 52.8732C27.0824 43.1515 21.2749 29.715 18.4244 23.6585C18.3707 23.5051 18.0092 23.4548 18.0092 23.7089C17.905 26.8139 17.6981 29.5112 17.594 34.2954C17.1787 49.6667 17.5411 50.6338 17.9563 50.8879C18.5784 51.2955 20.2905 51.4985 21.5346 51.8038C21.9498 51.9061 21.8456 52.5167 21.5875 52.4663C20.135 52.3137 18.6304 52.2626 15.881 52.2626C13.1316 52.2626 11.3712 52.3144 9.97238 52.4663C9.65906 52.5175 9.55717 51.9061 10.0222 51.8038C11.3176 51.4985 12.9769 51.397 13.6518 51.0406C15.0001 50.3277 15.0514 49.5141 15.7791 34.2954C16.4525 19.7903 15.8289 18.7721 14.4814 17.8043C13.7054 17.2441 12.7693 16.9907 11.11 16.7358C10.6948 16.6854 10.8013 16.0236 11.0594 16.074C12.1472 16.2267 15.3639 16.3289 17.4384 16.3289C19.3559 16.3289 20.7042 16.2267 21.687 16.1252C21.8946 16.1252 22.0517 16.2778 22.1022 16.3801C23.8144 21.1138 29.6748 35.212 33.4592 44.3223C33.509 44.475 33.823 44.4246 33.8744 44.3223C37.7644 35.212 42.534 24.4729 45.2297 16.3801C45.2803 16.1763 45.4374 16.1252 45.6457 16.1252C46.6293 16.2274 49.2723 16.3289 51.0878 16.3289C53.0582 16.3289 54.6646 16.2267 55.6513 16.074C55.9623 16.0236 56.0665 16.6846 55.6015 16.7358C53.9422 16.9907 52.8513 17.2449 52.384 17.6013C50.9323 18.7218 50.4666 19.6881 51.1399 34.2954C51.8677 49.5644 52.0753 50.8879 52.5411 51.1429C53.2144 51.5497 54.7182 51.4985 56.0159 51.8038C56.4311 51.9061 56.3247 52.5167 56.0673 52.4663C54.6148 52.3137 51.6616 52.2626 48.8586 52.2626Z" fill="white"/>
<path d="M31.8363 53.0084C28.9873 53.0084 25.4266 52.4166 21.3167 50.7495C20.8241 50.5344 20.7667 43.9132 20.4924 41.8166C20.438 41.4399 21.4148 41.3632 21.4998 41.588C24.1251 48.6138 27.289 51.6631 32.8774 51.6631C37.0402 51.6631 40.109 48.6514 40.109 43.9184C40.109 33.5388 21.8644 34.3457 21.8644 23.5359C21.8652 17.3508 26.4126 12.9412 34.3015 12.9412C37.3152 12.9412 39.6157 13.3713 42.1912 14.5008C42.7397 14.7158 42.7397 20.2016 42.9037 22.2989C42.958 22.729 42.3008 22.6756 42.2456 22.4598C40.6016 17.5125 37.6982 14.285 33.1509 14.285C29.6446 14.285 26.9603 16.5981 26.9603 21.0611C26.9603 30.4188 45.2041 29.3435 45.2041 42.143C45.2041 47.8979 40.0539 53.0069 31.8355 53.0069" fill="#EA1C33"/>
<mask id="mask0_8636_968" style="mask-type:luminance" maskUnits="userSpaceOnUse" x="30" y="51" width="3" height="3">
<path d="M32.486 51.5819C31.7337 51.5616 31.0174 51.4819 30.3578 51.3442L30.2705 51.445C30.4674 51.9368 30.6597 52.4211 30.8474 52.8963C30.8665 52.964 30.9324 53.0204 31.0412 53.0633L31.0664 53.0685C31.3062 53.0776 31.5475 53.0821 31.7835 53.0828L31.8103 53.0783C31.9413 53.0309 32.034 52.9527 32.0784 52.8505C32.2378 52.4602 32.3963 52.0722 32.5541 51.6849L32.4852 51.5819H32.486Z" fill="white"/>
</mask>
<g mask="url(#mask0_8636_968)">
<path d="M31.8363 53.0084C28.9873 53.0084 25.4266 52.4166 21.3167 50.7495C20.8241 50.5344 20.7667 43.9132 20.4924 41.8166C20.438 41.4399 21.4148 41.3632 21.4998 41.588C24.1251 48.6138 27.289 51.6631 32.8774 51.6631C37.0402 51.6631 40.109 48.6514 40.109 43.9184C40.109 33.5388 21.8644 34.3457 21.8644 23.5359C21.8652 17.3508 26.4126 12.9412 34.3015 12.9412C37.3152 12.9412 39.6157 13.3713 42.1912 14.5008C42.7397 14.7158 42.7397 20.2016 42.9037 22.2989C42.958 22.729 42.3008 22.6756 42.2456 22.4598C40.6016 17.5125 37.6982 14.285 33.1509 14.285C29.6446 14.285 26.9603 16.5981 26.9603 21.0611C26.9603 30.4188 45.2041 29.3435 45.2041 42.143C45.2041 47.8979 40.0539 53.0069 31.8355 53.0069" fill="#D7373C"/>
<path d="M48.8576 52.2626C46.1113 52.2626 42.5345 52.3144 41.1334 52.4663C40.8224 52.5175 40.7687 51.9061 41.1839 51.8038C42.428 51.4985 43.8292 51.4985 44.452 51.1429C45.539 50.5322 45.8531 49.3103 45.2303 34.0412C45.0235 29.4601 44.9706 26.9154 44.8672 23.8616C44.8672 23.6585 44.4007 23.6585 44.3478 23.7601C41.5478 30.376 36.8817 40.861 32.0073 52.822C31.851 53.1792 30.97 53.0755 30.9202 52.8732C27.0815 43.1515 21.2739 29.715 18.4234 23.6585C18.3698 23.5051 18.0082 23.4548 18.0082 23.7089C17.904 26.8139 17.6972 29.5112 17.593 34.2954C17.1778 49.6667 17.5401 50.6338 17.9553 50.8879C18.5774 51.2955 20.2895 51.4985 21.5336 51.8038C21.9488 51.9061 21.8446 52.5167 21.5865 52.4663C20.134 52.3137 18.6295 52.2626 15.8801 52.2626C13.1307 52.2626 11.3702 52.3144 9.9714 52.4663C9.65808 52.5175 9.55619 51.9061 10.0212 51.8038C11.3166 51.4985 12.9759 51.397 13.6508 51.0406C14.9991 50.3277 15.0504 49.5141 15.7782 34.2954C16.4515 19.7903 15.828 18.7721 14.4805 17.8043C13.7044 17.2441 12.7683 16.9907 11.109 16.7358C10.6938 16.6854 10.8003 16.0236 11.0584 16.074C12.1463 16.2267 15.363 16.3289 17.4375 16.3289C19.3549 16.3289 20.7032 16.2267 21.6861 16.1252C21.8937 16.1252 22.0507 16.2778 22.1013 16.3801C23.8134 21.1138 29.6738 35.212 33.4582 44.3223C33.508 44.475 33.8221 44.4246 33.8734 44.3223C37.7635 35.212 42.533 24.4729 45.2288 16.3801C45.2793 16.1763 45.4364 16.1252 45.6447 16.1252C46.6284 16.2274 49.2713 16.3289 51.0869 16.3289C53.0572 16.3289 54.6636 16.2267 55.6503 16.074C55.9613 16.0236 56.0655 16.6846 55.6005 16.7358C53.9412 16.9907 52.8503 17.2449 52.383 17.6013C50.9314 18.7218 50.4656 19.6881 51.139 34.2954C51.8667 49.5644 52.0743 50.8879 52.5401 51.1429C53.2135 51.5497 54.7172 51.4985 56.015 51.8038C56.4302 51.9061 56.3237 52.5167 56.0663 52.4663C54.6138 52.3137 51.6606 52.2626 48.8576 52.2626Z" fill="white"/>
</g>
<mask id="mask1_8636_968" style="mask-type:luminance" maskUnits="userSpaceOnUse" x="36" y="32" width="5" height="7">
<path d="M40.4235 32.9335C40.0289 32.6335 39.6122 32.3394 39.1503 32.0356L39.0369 32.0695C38.3834 33.6186 37.6748 35.2797 36.7402 37.4567L36.7617 37.5432C37.1899 37.8989 37.5783 38.2643 37.9161 38.6313L38.0433 38.6103C38.9572 36.4754 39.8083 34.5029 40.4472 33.023L40.4235 32.9343V32.9335Z" fill="white"/>
</mask>
<g mask="url(#mask1_8636_968)">
<path d="M31.8363 53.0084C28.9873 53.0084 25.4266 52.4166 21.3167 50.7495C20.8241 50.5344 20.7667 43.9132 20.4924 41.8166C20.438 41.4399 21.4148 41.3632 21.4998 41.588C24.1251 48.6138 27.289 51.6631 32.8774 51.6631C37.0402 51.6631 40.109 48.6514 40.109 43.9184C40.109 33.5388 21.8644 34.3457 21.8644 23.5359C21.8652 17.3508 26.4126 12.9412 34.3015 12.9412C37.3152 12.9412 39.6157 13.3713 42.1912 14.5008C42.7397 14.7158 42.7397 20.2016 42.9037 22.2989C42.958 22.729 42.3008 22.6756 42.2456 22.4598C40.6016 17.5125 37.6982 14.285 33.1509 14.285C29.6446 14.285 26.9603 16.5981 26.9603 21.0611C26.9603 30.4188 45.2041 29.3435 45.2041 42.143C45.2041 47.8979 40.0539 53.0069 31.8355 53.0069" fill="#D7373C"/>
<path d="M48.8576 52.2626C46.1113 52.2626 42.5345 52.3144 41.1334 52.4663C40.8224 52.5175 40.7687 51.9061 41.1839 51.8038C42.428 51.4985 43.8292 51.4985 44.452 51.1429C45.539 50.5322 45.8531 49.3103 45.2303 34.0412C45.0235 29.4601 44.9706 26.9154 44.8672 23.8616C44.8672 23.6585 44.4007 23.6585 44.3478 23.7601C41.5478 30.376 36.8817 40.861 32.0073 52.822C31.851 53.1792 30.97 53.0755 30.9202 52.8732C27.0815 43.1515 21.2739 29.715 18.4234 23.6585C18.3698 23.5051 18.0082 23.4548 18.0082 23.7089C17.904 26.8139 17.6972 29.5112 17.593 34.2954C17.1778 49.6667 17.5401 50.6338 17.9553 50.8879C18.5774 51.2955 20.2895 51.4985 21.5336 51.8038C21.9488 51.9061 21.8446 52.5167 21.5865 52.4663C20.134 52.3137 18.6295 52.2626 15.8801 52.2626C13.1307 52.2626 11.3702 52.3144 9.9714 52.4663C9.65808 52.5175 9.55619 51.9061 10.0212 51.8038C11.3166 51.4985 12.9759 51.397 13.6508 51.0406C14.9991 50.3277 15.0504 49.5141 15.7782 34.2954C16.4515 19.7903 15.828 18.7721 14.4805 17.8043C13.7044 17.2441 12.7683 16.9907 11.109 16.7358C10.6938 16.6854 10.8003 16.0236 11.0584 16.074C12.1463 16.2267 15.363 16.3289 17.4375 16.3289C19.3549 16.3289 20.7032 16.2267 21.6861 16.1252C21.8937 16.1252 22.0507 16.2778 22.1013 16.3801C23.8134 21.1138 29.6738 35.212 33.4582 44.3223C33.508 44.475 33.8221 44.4246 33.8734 44.3223C37.7635 35.212 42.533 24.4729 45.2288 16.3801C45.2793 16.1763 45.4364 16.1252 45.6447 16.1252C46.6284 16.2274 49.2713 16.3289 51.0869 16.3289C53.0572 16.3289 54.6636 16.2267 55.6503 16.074C55.9613 16.0236 56.0655 16.6846 55.6005 16.7358C53.9412 16.9907 52.8503 17.2449 52.383 17.6013C50.9314 18.7218 50.4656 19.6881 51.139 34.2954C51.8667 49.5644 52.0743 50.8879 52.5401 51.1429C53.2135 51.5497 54.7172 51.4985 56.015 51.8038C56.4302 51.9061 56.3237 52.5167 56.0663 52.4663C54.6138 52.3137 51.6606 52.2626 48.8576 52.2626Z" fill="white"/>
</g>
</g>
<defs>
<clipPath id="clip0_8636_968">
<rect x="9.70605" y="12.9412" width="46.5882" height="40.1176" rx="4.19048" fill="white"/>
</clipPath>
</defs>
</svg>
