<svg width="46" height="39" viewBox="0 0 46 39" fill="none" xmlns="http://www.w3.org/2000/svg">
<g clip-path="url(#clip0_8564_3018)">
<path d="M38.2556 37.9457C35.6341 37.9457 32.22 37.9953 30.8825 38.1403C30.5856 38.1891 30.5344 37.6055 30.9308 37.5079C32.1183 37.2164 33.4558 37.2164 34.0503 36.8769C35.0879 36.2941 35.3877 35.1276 34.7932 20.5526C34.5958 16.1798 34.5453 13.7507 34.4466 10.8357C34.4466 10.6419 34.0013 10.6419 33.9508 10.7388C31.2781 17.0541 26.8241 27.0624 22.1712 38.4798C22.022 38.8207 21.1811 38.7217 21.1336 38.5286C17.4693 29.2488 11.9258 16.4231 9.2048 10.6419C9.15361 10.4955 8.80846 10.4474 8.80846 10.69C8.70901 13.6538 8.51158 16.2286 8.41213 20.7952C8.01579 35.4679 8.36167 36.391 8.75801 36.6336C9.35178 37.0226 10.9861 37.2164 12.1736 37.5079C12.57 37.6055 12.4705 38.1884 12.2241 38.1403C10.8377 37.9945 9.4015 37.9457 6.77707 37.9457C4.15263 37.9457 2.47224 37.9953 1.13698 38.1403C0.837906 38.1891 0.740651 37.6055 1.18452 37.5079C2.42105 37.2164 4.00492 37.1195 4.64915 36.7793C5.93614 36.0988 5.98513 35.3222 6.67981 20.7952C7.32257 6.94953 6.72734 5.97762 5.44108 5.05381C4.70034 4.51904 3.80676 4.27714 2.22288 4.03381C1.82655 3.98572 1.92819 3.35405 2.17462 3.40214C3.21299 3.54786 6.28348 3.64548 8.26369 3.64548C10.094 3.64548 11.381 3.54786 12.3192 3.45095C12.5173 3.45095 12.6672 3.59667 12.7155 3.69429C14.3498 8.21286 19.9438 21.6702 23.5562 30.3664C23.6037 30.5122 23.9035 30.4641 23.9525 30.3664C27.6658 21.6702 32.2185 11.4193 34.7917 3.69429C34.84 3.49976 34.9899 3.45095 35.1888 3.45095C36.1277 3.54857 38.6505 3.64548 40.3836 3.64548C42.2643 3.64548 43.7977 3.54786 44.7396 3.40214C45.0365 3.35405 45.1359 3.985 44.692 4.03381C43.1082 4.27714 42.0669 4.51976 41.6208 4.86C40.2351 5.92953 39.7905 6.85191 40.4333 20.7952C41.128 35.3703 41.3261 36.6336 41.7707 36.8769C42.4135 37.2653 43.8489 37.2164 45.0877 37.5079C45.484 37.6055 45.3823 38.1884 45.1366 38.1403C43.7502 37.9945 40.9313 37.9457 38.2556 37.9457Z" fill="white"/>
<path d="M22.0071 38.6578C19.2876 38.6578 15.8888 38.0928 11.9657 36.5015C11.4955 36.2962 11.4406 29.9759 11.1788 27.9747C11.1269 27.6151 12.0593 27.5419 12.1404 27.7565C14.6464 34.4629 17.6664 37.3736 23.0009 37.3736C26.9744 37.3736 29.9038 34.4988 29.9038 29.9809C29.9038 20.0731 12.4885 20.8433 12.4885 10.5249C12.4892 4.62094 16.8299 0.411736 24.3602 0.411736C27.237 0.411736 29.4329 0.822319 31.8913 1.90046C32.4149 2.10575 32.4149 7.34213 32.5714 9.34409C32.6233 9.75467 31.9959 9.70371 31.9432 9.4977C30.374 4.77527 27.6026 1.69445 23.2619 1.69445C19.915 1.69445 17.3527 3.90242 17.3527 8.16258C17.3527 17.0949 34.7673 16.0685 34.7673 28.2862C34.7673 33.7796 29.8512 38.6563 22.0064 38.6563" fill="#EA1C33"/>
<mask id="mask0_8564_3018" style="mask-type:luminance" maskUnits="userSpaceOnUse" x="20" y="37" width="3" height="2">
<path d="M22.6275 37.296C21.9094 37.2766 21.2257 37.2006 20.5961 37.0692L20.5127 37.1654C20.7006 37.6348 20.8842 38.0971 21.0633 38.5508C21.0816 38.6154 21.1445 38.6692 21.2483 38.7101L21.2725 38.7151C21.5013 38.7237 21.7317 38.7281 21.9569 38.7288L21.9825 38.7245C22.1075 38.6792 22.196 38.6046 22.2384 38.507C22.3905 38.1344 22.5419 37.764 22.6925 37.3944L22.6267 37.296H22.6275Z" fill="white"/>
</mask>
<g mask="url(#mask0_8564_3018)">
<path d="M22.0071 38.6577C19.2876 38.6577 15.8888 38.0928 11.9657 36.5014C11.4955 36.2961 11.4406 29.9759 11.1788 27.9746C11.1269 27.615 12.0593 27.5418 12.1404 27.7564C14.6464 34.4629 17.6664 37.3736 23.0009 37.3736C26.9744 37.3736 29.9038 34.4988 29.9038 29.9809C29.9038 20.073 12.4885 20.8433 12.4885 10.5248C12.4892 4.62088 16.8299 0.411682 24.3602 0.411682C27.237 0.411682 29.4329 0.822266 31.8913 1.90041C32.4149 2.1057 32.4149 7.34208 32.5714 9.34403C32.6233 9.75462 31.9959 9.70365 31.9432 9.49764C30.374 4.77521 27.6026 1.6944 23.2619 1.6944C19.915 1.6944 17.3527 3.90236 17.3527 8.16253C17.3527 17.0949 34.7673 16.0684 34.7673 28.2862C34.7673 33.7795 29.8512 38.6563 22.0064 38.6563" fill="#D7373C"/>
<path d="M38.2547 37.9457C35.6332 37.9457 32.219 37.9952 30.8815 38.1402C30.5847 38.189 30.5335 37.6054 30.9298 37.5078C32.1173 37.2164 33.4548 37.2164 34.0493 36.8768C35.0869 36.294 35.3867 35.1275 34.7922 20.5525C34.5948 16.1797 34.5443 13.7506 34.4456 10.8356C34.4456 10.6418 34.0003 10.6418 33.9498 10.7387C31.2771 17.054 26.8231 27.0623 22.1702 38.4797C22.0211 38.8207 21.1801 38.7216 21.1326 38.5285C17.4683 29.2487 11.9248 16.423 9.20382 10.6418C9.15263 10.4954 8.80749 10.4473 8.80749 10.6899C8.70804 13.6537 8.5106 16.2285 8.41115 20.7952C8.01482 35.4678 8.3607 36.3909 8.75703 36.6335C9.3508 37.0226 10.9851 37.2164 12.1727 37.5078C12.569 37.6054 12.4696 38.1883 12.2231 38.1402C10.8367 37.9945 9.40052 37.9457 6.77609 37.9457C4.15166 37.9457 2.47126 37.9952 1.13601 38.1402C0.83693 38.189 0.739674 37.6054 1.18354 37.5078C2.42007 37.2164 4.00395 37.1195 4.64817 36.7792C5.93516 36.0987 5.98415 35.3221 6.67883 20.7952C7.3216 6.94944 6.72637 5.97753 5.44011 5.05372C4.69936 4.51896 3.80578 4.27706 2.2219 4.03372C1.82557 3.98563 1.92721 3.35396 2.17364 3.40205C3.21201 3.54777 6.2825 3.64539 8.26271 3.64539C10.093 3.64539 11.38 3.54777 12.3182 3.45086C12.5164 3.45086 12.6663 3.59658 12.7145 3.6942C14.3488 8.21277 19.9429 21.6702 23.5552 30.3664C23.6027 30.5121 23.9025 30.464 23.9515 30.3664C27.6648 21.6702 32.2175 11.4192 34.7908 3.6942C34.839 3.49967 34.9889 3.45086 35.1878 3.45086C36.1268 3.54848 38.6495 3.64539 40.3826 3.64539C42.2633 3.64539 43.7968 3.54777 44.7386 3.40205C45.0355 3.35396 45.1349 3.98491 44.6911 4.03372C43.1072 4.27706 42.0659 4.51967 41.6198 4.85991C40.2341 5.92944 39.7895 6.85182 40.4323 20.7952C41.127 35.3702 41.3252 36.6335 41.7698 36.8768C42.4125 37.2652 43.8479 37.2164 45.0867 37.5078C45.483 37.6054 45.3814 38.1883 45.1357 38.1402C43.7492 37.9945 40.9303 37.9457 38.2547 37.9457Z" fill="white"/>
</g>
<mask id="mask1_8564_3018" style="mask-type:luminance" maskUnits="userSpaceOnUse" x="26" y="18" width="5" height="7">
<path d="M30.2033 19.4953C29.8267 19.2089 29.4289 18.9282 28.988 18.6382L28.8798 18.6705C28.256 20.1492 27.5796 21.7348 26.6875 23.8129L26.708 23.8954C27.1167 24.2349 27.4875 24.5838 27.81 24.9341L27.9313 24.914C28.8037 22.8761 29.6161 20.9933 30.226 19.5807L30.2033 19.496V19.4953Z" fill="white"/>
</mask>
<g mask="url(#mask1_8564_3018)">
<path d="M22.0071 38.6578C19.2876 38.6578 15.8888 38.0929 11.9657 36.5015C11.4955 36.2962 11.4406 29.976 11.1788 27.9747C11.1269 27.6151 12.0593 27.5419 12.1404 27.7565C14.6464 34.4629 17.6664 37.3736 23.0009 37.3736C26.9744 37.3736 29.9038 34.4988 29.9038 29.981C29.9038 20.0731 12.4885 20.8433 12.4885 10.5249C12.4892 4.62097 16.8299 0.41177 24.3602 0.41177C27.237 0.41177 29.4329 0.822354 31.8913 1.9005C32.4149 2.10579 32.4149 7.34217 32.5714 9.34412C32.6233 9.7547 31.9959 9.70374 31.9432 9.49773C30.374 4.7753 27.6026 1.69449 23.2619 1.69449C19.915 1.69449 17.3527 3.90245 17.3527 8.16262C17.3527 17.095 34.7673 16.0685 34.7673 28.2862C34.7673 33.7796 29.8512 38.6564 22.0064 38.6564" fill="#D7373C"/>
<path d="M38.2547 37.9457C35.6332 37.9457 32.219 37.9953 30.8815 38.1403C30.5847 38.1891 30.5335 37.6055 30.9298 37.5079C32.1173 37.2164 33.4548 37.2164 34.0493 36.8769C35.0869 36.2941 35.3867 35.1276 34.7922 20.5526C34.5948 16.1798 34.5443 13.7507 34.4456 10.8357C34.4456 10.6419 34.0003 10.6419 33.9498 10.7388C31.2771 17.0541 26.8231 27.0624 22.1702 38.4798C22.0211 38.8207 21.1801 38.7217 21.1326 38.5286C17.4683 29.2488 11.9248 16.4231 9.20382 10.6419C9.15263 10.4955 8.80749 10.4474 8.80749 10.69C8.70804 13.6538 8.5106 16.2286 8.41115 20.7952C8.01482 35.4679 8.3607 36.391 8.75703 36.6336C9.3508 37.0226 10.9851 37.2164 12.1727 37.5079C12.569 37.6055 12.4696 38.1884 12.2231 38.1403C10.8367 37.9945 9.40052 37.9457 6.77609 37.9457C4.15166 37.9457 2.47126 37.9953 1.13601 38.1403C0.83693 38.1891 0.739674 37.6055 1.18354 37.5079C2.42007 37.2164 4.00395 37.1195 4.64817 36.7793C5.93516 36.0988 5.98415 35.3222 6.67883 20.7952C7.3216 6.94953 6.72637 5.97762 5.44011 5.05381C4.69936 4.51904 3.80578 4.27714 2.2219 4.03381C1.82557 3.98571 1.92721 3.35405 2.17364 3.40214C3.21201 3.54785 6.2825 3.64548 8.26271 3.64548C10.093 3.64548 11.38 3.54785 12.3182 3.45095C12.5164 3.45095 12.6663 3.59667 12.7145 3.69429C14.3488 8.21286 19.9429 21.6702 23.5552 30.3664C23.6027 30.5122 23.9025 30.4641 23.9515 30.3664C27.6648 21.6702 32.2175 11.4193 34.7908 3.69429C34.839 3.49976 34.9889 3.45095 35.1878 3.45095C36.1268 3.54857 38.6495 3.64548 40.3826 3.64548C42.2633 3.64548 43.7968 3.54785 44.7386 3.40214C45.0355 3.35405 45.1349 3.985 44.6911 4.03381C43.1072 4.27714 42.0659 4.51976 41.6198 4.86C40.2341 5.92953 39.7895 6.85191 40.4323 20.7952C41.127 35.3703 41.3252 36.6336 41.7698 36.8769C42.4125 37.2653 43.8479 37.2164 45.0867 37.5079C45.483 37.6055 45.3814 38.1884 45.1357 38.1403C43.7492 37.9945 40.9303 37.9457 38.2547 37.9457Z" fill="white"/>
</g>
</g>
<defs>
<clipPath id="clip0_8564_3018">
<rect width="44.4706" height="38.2941" fill="white" transform="translate(0.882812 0.411736)"/>
</clipPath>
</defs>
</svg>
