<svg width="24" height="24" viewBox="0 0 24 24" fill="none" xmlns="http://www.w3.org/2000/svg">
<path opacity="0.5" d="M3 20.0299V17.791H5.23881V9.95522C5.23881 8.40672 5.70522 7.03078 6.63806 5.82743C7.5709 4.62407 8.78358 3.83582 10.2761 3.46269V2.6791C10.2761 2.21269 10.4394 1.81623 10.7659 1.48974C11.0924 1.16325 11.4888 1 11.9552 1C12.4216 1 12.8181 1.16325 13.1446 1.48974C13.4711 1.81623 13.6343 2.21269 13.6343 2.6791V3.46269C15.1269 3.83582 16.3396 4.62407 17.2724 5.82743C18.2052 7.03078 18.6716 8.40672 18.6716 9.95522V17.791H20.9104V20.0299H3ZM11.9552 23.3881C11.3396 23.3881 10.8125 23.1688 10.3741 22.7304C9.93563 22.292 9.71642 21.7649 9.71642 21.1493H14.194C14.194 21.7649 13.9748 22.292 13.5364 22.7304C13.0979 23.1688 12.5709 23.3881 11.9552 23.3881ZM7.47761 17.791H16.4328V9.95522C16.4328 8.72388 15.9944 7.66978 15.1175 6.79291C14.2407 5.91604 13.1866 5.47761 11.9552 5.47761C10.7239 5.47761 9.66978 5.91604 8.79291 6.79291C7.91604 7.66978 7.47761 8.72388 7.47761 9.95522V17.791Z" fill="white"/>
<path d="M3 20.0299V17.791H5.23881V9.95522C5.23881 8.40672 5.70522 7.03078 6.63806 5.82743C7.5709 4.62407 8.78358 3.83582 10.2761 3.46269V2.6791C10.2761 2.21269 10.4394 1.81623 10.7659 1.48974C11.0924 1.16325 11.4888 1 11.9552 1C12.4216 1 12.8181 1.16325 13.1446 1.48974C13.4711 1.81623 13.6343 2.21269 13.6343 2.6791V3.46269C15.1269 3.83582 16.3396 4.62407 17.2724 5.82743C18.2052 7.03078 18.6716 8.40672 18.6716 9.95522V17.791H20.9104V20.0299H3ZM11.9552 23.3881C11.3396 23.3881 10.8125 23.1688 10.3741 22.7304C9.93563 22.292 9.71642 21.7649 9.71642 21.1493H14.194C14.194 21.7649 13.9748 22.292 13.5364 22.7304C13.0979 23.1688 12.5709 23.3881 11.9552 23.3881Z" fill="#EA1C33"/>
</svg>
