<svg width="264" height="48" viewBox="0 0 264 48" fill="none" xmlns="http://www.w3.org/2000/svg">
<path d="M152.178 36.6937C144.958 36.6937 140.825 31.4318 140.825 25.0997C140.825 18.7677 145.901 13.8992 151.992 13.8992C159.212 13.8992 163.345 19.1907 163.345 25.4974C163.345 31.804 158.265 36.6937 152.174 36.6937M151.717 14.6944C147.098 14.6944 144.865 18.7339 144.865 25.1886C144.865 31.6433 147.741 35.8985 152.453 35.8985C157.165 35.8985 159.335 31.859 159.335 25.4043C159.335 18.9496 156.429 14.6944 151.717 14.6944Z" fill="#1B1C1D"/>
<path d="M185.108 35.6532C183.517 36.2031 180.121 36.6937 177.887 36.6937C169.931 36.6937 166.044 31.6475 166.044 25.0659C166.044 18.4843 170.908 13.8654 178.133 13.8654C180.396 13.8654 183.242 14.3856 184.862 15.0878C185.26 15.2697 185.26 19.2795 185.319 20.6585C185.319 20.9038 185.015 20.9038 184.951 20.7515C183.39 16.8051 181.28 14.6606 177.452 14.6606C172.833 14.6606 170.05 18.7 170.05 25.1548C170.05 31.6095 173.446 35.8943 177.731 35.8943C181.314 35.8943 184.186 33.018 185.442 29.8668C185.505 29.7145 185.776 29.7145 185.776 29.9598C185.776 31.491 185.285 35.5897 185.104 35.649" fill="#1B1C1D"/>
<path d="M193.618 36.0804C191.964 36.0804 189.824 36.11 188.999 36.2031C188.847 36.2327 188.783 35.8647 189.028 35.8055C189.794 35.6236 191.11 35.6532 191.507 35.4079C191.752 35.2556 191.905 34.4604 191.905 25.2774C191.905 16.0945 191.752 15.2401 191.507 15.1174C191.11 14.9017 189.794 14.9017 189.028 14.7198C188.783 14.6606 188.847 14.2926 188.999 14.3222C189.828 14.4152 191.964 14.4745 193.618 14.4745C195.272 14.4745 197.382 14.4152 198.237 14.3222C198.389 14.2926 198.448 14.6606 198.207 14.7198C197.442 14.9017 196.126 14.9017 195.728 15.1174C195.454 15.2697 195.301 16.0649 195.301 25.2774C195.301 34.49 195.454 35.2514 195.728 35.4079C196.126 35.6532 197.442 35.6236 198.207 35.8055C198.452 35.8689 198.393 36.2327 198.237 36.2031C197.378 36.11 195.238 36.0804 193.618 36.0804Z" fill="#1B1C1D"/>
<path d="M217.482 36.2031C215.371 36.11 213.015 36.0804 209.589 36.0804C206.163 36.0804 202.948 36.11 201.206 36.2031C200.872 36.2327 200.994 35.8647 201.235 35.8055C201.971 35.6236 202.855 35.6532 203.253 35.4079C203.498 35.2556 203.684 34.4604 203.684 25.2816C203.684 16.1029 203.498 15.2443 203.253 15.1216C202.855 14.9059 201.971 14.9059 201.235 14.724C200.99 14.6648 200.867 14.2968 201.206 14.3264C202.948 14.4195 205.579 14.4787 208.976 14.4787C212.373 14.4787 214.179 14.4195 216.289 14.3264C216.564 14.4491 216.687 18.7635 216.839 19.5291C216.903 19.804 216.442 19.804 216.382 19.6221C215.833 18.1544 215.19 16.7755 214.365 16.2256C213.54 15.6757 212.466 15.2147 209.957 15.2147C208.215 15.2147 207.694 15.2739 207.449 15.4304C207.238 15.553 207.081 16.196 207.081 23.5686C207.081 24.0888 207.14 24.423 207.263 24.4864C207.479 24.5795 207.66 24.6091 209.374 24.6091C210.875 24.6091 211.518 24.3934 211.945 24.0296C212.588 23.4797 213.045 22.528 213.324 21.4283C213.383 21.1829 213.751 21.276 213.751 21.4283C213.692 22.2869 213.629 23.2936 213.629 24.9475C213.629 26.6014 213.692 27.7011 213.751 28.5598C213.751 28.712 213.354 28.8051 213.324 28.5598C213.142 27.4896 212.529 26.3856 212.009 25.9288C211.611 25.5608 210.693 25.2859 209.378 25.2859C207.694 25.2859 207.419 25.3155 207.267 25.4085C207.174 25.4678 207.085 25.8654 207.085 26.3264C207.115 34.3123 207.267 34.8326 207.512 34.9553C207.91 35.171 208.705 35.3233 210.418 35.3233C213.938 35.3233 214.792 34.8664 215.71 34.067C216.416 33.4537 217.453 31.5883 217.973 30.0571C218.002 29.9641 218.463 29.9345 218.4 30.1502C218.125 31.343 217.727 36.1185 217.482 36.2073" fill="#1B1C1D"/>
<path d="M240.163 20.079C239.245 17.2958 238.082 15.46 234.745 15.46C233.581 15.46 233.306 15.46 232.452 15.5192C232.359 16.6528 232.3 19.804 232.3 25.2817C232.3 34.4604 232.452 35.2556 232.697 35.4079C233.095 35.6532 234.106 35.6236 234.867 35.8055C235.113 35.8647 235.053 36.2327 234.901 36.2031C234.042 36.11 232.27 36.0804 230.616 36.0804C228.962 36.0804 227.067 36.11 226.209 36.2031C226.056 36.2327 225.997 35.8647 226.238 35.8055C227.004 35.6236 228.104 35.6532 228.472 35.4079C228.747 35.226 228.899 34.4604 228.899 25.2817C228.899 19.804 228.835 16.6824 228.747 15.5192C228.044 15.4896 227.617 15.4896 226.881 15.4896C224.157 15.4896 222.14 17.2027 221.07 19.8971C220.981 20.1128 220.613 20.079 220.642 19.9267C220.858 18.4886 221.315 15.2443 221.349 14.2038C221.349 13.988 221.653 13.988 221.776 14.0515C222.635 14.4787 223.675 14.724 230.743 14.724C238.179 14.724 239.465 14.4491 240.197 14.0515C240.319 13.988 240.624 13.988 240.565 14.2038C240.413 15.2443 240.624 18.6705 240.594 20.1086C240.594 20.2609 240.226 20.2905 240.167 20.079" fill="#1B1C1D"/>
<path d="M263.821 14.724C262.628 15.0624 261.803 14.9059 261.038 15.7011C260.272 16.4667 257.916 20.2904 255.408 24.9094C254.735 26.1318 254.642 26.6859 254.642 28.2425C254.642 35.1583 254.824 35.2513 255.069 35.4036C255.437 35.6489 256.537 35.6193 257.303 35.8012C257.548 35.8604 257.484 36.2284 257.332 36.1988C256.474 36.1057 254.367 36.0761 252.743 36.0761C251.119 36.0761 249.376 36.1057 248.551 36.1988C248.369 36.2284 248.335 35.8604 248.581 35.8012C249.317 35.6193 250.416 35.6489 250.814 35.4036C251.026 35.2809 251.212 34.4561 251.212 28.6105C251.212 27.1724 251.182 26.5929 250.476 25.3366C248.365 21.7243 245.028 15.5446 244.355 15.147C243.894 14.872 242.735 14.9016 241.936 14.7197C241.661 14.6563 241.754 14.3221 241.906 14.3221C242.701 14.3814 244.444 14.4744 246.005 14.4744C247.566 14.4744 250.412 14.3814 251.207 14.3221C251.36 14.3221 251.389 14.6901 251.178 14.7197C250.078 14.8128 248.881 14.9947 248.881 15.3035C248.881 15.6122 250.992 20.3835 254.113 25.4635C257.353 19.7109 259.159 15.9464 259.159 15.5488C259.159 15.2442 258.61 14.9355 257.108 14.724C256.863 14.6944 256.926 14.3264 257.078 14.3264C257.874 14.3856 259.375 14.4786 260.936 14.4786C262.497 14.4786 263.047 14.3856 263.872 14.3264C264.024 14.3264 264.083 14.6309 263.812 14.724" fill="#1B1C1D"/>
<path d="M126.96 47.7759C123.627 47.7759 119.456 47.0695 114.647 45.0815C114.071 44.8235 114.004 36.9306 113.682 34.4308C113.619 33.9824 114.761 33.8894 114.862 34.1601C117.937 42.5394 121.639 46.1728 128.182 46.1728C133.055 46.1728 136.646 42.5817 136.646 36.9391C136.646 24.5626 115.29 25.5228 115.29 12.6345C115.29 5.25767 120.611 0 129.849 0C133.376 0 136.071 0.511809 139.082 1.86112C139.725 2.11914 139.725 8.65845 139.916 11.1583C139.979 11.6701 139.209 11.6066 139.146 11.3486C137.221 5.44802 133.825 1.59887 128.499 1.59887C124.396 1.59887 121.254 4.35672 121.254 9.67784C121.254 20.8361 142.61 19.5545 142.61 34.8157C142.61 41.6765 136.583 47.7717 126.96 47.7717" fill="#EA1C33"/>
<path d="M23.1051 36.0804C21.485 36.0804 19.3744 36.11 18.5453 36.2031C18.3634 36.2327 18.3296 35.8647 18.5749 35.8055C19.3109 35.6236 20.1357 35.6236 20.5037 35.4079C21.1467 35.0399 21.3285 34.3081 20.9648 25.1251C20.8421 22.3715 20.8125 20.8403 20.7491 19.0046C20.7491 18.8819 20.4741 18.8819 20.4445 18.9454C18.7907 22.9214 16.037 29.2281 13.1608 36.4188C13.0677 36.6345 12.5474 36.5711 12.5178 36.4484C10.2506 30.6028 6.82447 22.528 5.14523 18.8862C5.11139 18.7931 4.8999 18.7635 4.8999 18.9158C4.84068 20.7811 4.71802 22.4054 4.65457 25.2817C4.40924 34.5238 4.62496 35.1033 4.87029 35.2556C5.23829 35.5009 6.24922 35.6236 6.98098 35.8055C7.22631 35.8689 7.16286 36.2327 7.01059 36.2031C6.15193 36.11 5.2679 36.0804 3.64364 36.0804C2.01939 36.0804 0.983083 36.11 0.158267 36.2031C-0.0278452 36.2327 -0.0870627 35.8647 0.187876 35.8055C0.953474 35.6236 1.93056 35.5601 2.32817 35.3486C3.12338 34.9214 3.15298 34.4308 3.58443 25.2817C3.98203 16.5597 3.61403 15.9507 2.81883 15.3669C2.36201 15.0286 1.8079 14.8763 0.83081 14.724C0.58548 14.6944 0.648927 14.2968 0.801201 14.3264C1.44413 14.4195 3.34333 14.4787 4.56575 14.4787C5.69511 14.4787 6.49455 14.4195 7.07403 14.356C7.1967 14.356 7.28975 14.4491 7.31936 14.5083C8.33029 17.355 11.7861 25.8315 14.0194 31.3049C14.049 31.398 14.2351 31.3684 14.2647 31.3049C16.5615 25.8273 19.3744 19.3726 20.9648 14.5083C20.9944 14.3856 21.0874 14.356 21.2101 14.356C21.7896 14.4152 23.3504 14.4787 24.4205 14.4787C25.5838 14.4787 26.5312 14.4195 27.1149 14.3264C27.2968 14.2968 27.3603 14.6944 27.0853 14.724C26.104 14.8763 25.4611 15.0286 25.1861 15.2443C24.3317 15.9168 24.0568 16.5005 24.4502 25.2817C24.8816 34.4604 25 35.2556 25.2792 35.4121C25.6768 35.6574 26.5651 35.6278 27.3307 35.8097C27.576 35.8731 27.5126 36.2369 27.3603 36.2073C26.5016 36.1142 24.7589 36.0846 23.1051 36.0846" fill="#1B1C1D"/>
<path d="M41.2591 36.6937C34.0388 36.6937 29.9062 31.4318 29.9062 25.0997C29.9062 18.7677 34.9863 13.8992 41.073 13.8992C48.2933 13.8992 52.4258 19.1907 52.4258 25.4974C52.4258 31.804 47.3458 36.6937 41.2591 36.6937ZM40.7981 14.6944C36.1791 14.6944 33.9457 18.7339 33.9457 25.1886C33.9457 31.6433 36.822 35.8985 41.534 35.8985C46.2461 35.8985 48.416 31.859 48.416 25.4043C48.416 18.9496 45.5101 14.6944 40.7981 14.6944Z" fill="#1B1C1D"/>
<path d="M64.9467 36.2031C64.1811 36.2031 62.2227 36.0804 60.5689 36.0804C58.915 36.0804 56.1022 36.11 55.2435 36.2031C55.0912 36.2327 55.0278 35.8647 55.3027 35.8055C56.0387 35.6236 56.9227 35.6532 57.3204 35.4079C57.5657 35.2556 57.718 34.4604 57.718 25.2816C57.718 16.1029 57.5657 15.2443 57.3204 15.1216C56.9227 14.9059 56.0345 14.9059 55.3027 14.724C55.0278 14.6648 55.087 14.2968 55.2435 14.3264C56.0979 14.4195 58.7331 14.4787 60.3531 14.4787C61.9732 14.4787 63.6566 14.3264 64.5153 14.3264C73.2372 14.3264 77.0313 18.8227 77.0313 25.159C77.0313 31.4953 72.1036 36.2073 64.9467 36.2073M64.2107 15.1216C62.5865 15.1216 61.9436 15.2739 61.5756 15.5192C61.3302 15.6715 61.1483 16.0691 61.1483 25.2816C61.1483 32.9292 61.4825 34.3673 61.9732 34.7988C62.523 35.2894 63.259 35.4121 65.6785 35.4121C70.6358 35.4121 73.0215 31.6771 73.0215 25.3747C73.0215 18.5816 70.1452 15.1258 64.2107 15.1258" fill="#1B1C1D"/>
<path d="M96.1286 36.2031C94.0179 36.11 91.6619 36.0804 88.2358 36.0804C84.8096 36.0804 81.5992 36.11 79.8523 36.2031C79.5181 36.2327 79.6408 35.8647 79.8819 35.8055C80.6179 35.6236 81.5019 35.6532 81.8995 35.4079C82.1448 35.2556 82.3309 34.4604 82.3309 25.2816C82.3309 16.1029 82.1448 15.2443 81.8995 15.1216C81.5019 14.9059 80.6179 14.9059 79.8819 14.724C79.6365 14.6648 79.5139 14.2968 79.8523 14.3264C81.5949 14.4195 84.2259 14.4787 87.6224 14.4787C91.019 14.4787 92.8251 14.4195 94.9358 14.3264C95.2108 14.4491 95.3334 18.7635 95.4857 19.5291C95.5491 19.804 95.0881 19.804 95.0289 19.6221C94.479 18.1544 93.8361 16.7755 93.0112 16.2256C92.1822 15.6757 91.1163 15.2147 88.6038 15.2147C86.8611 15.2147 86.3408 15.2739 86.0955 15.4304C85.884 15.553 85.7275 16.196 85.7275 23.5686C85.7275 24.0888 85.7867 24.423 85.9094 24.4864C86.1251 24.5795 86.307 24.6091 88.02 24.6091C89.5216 24.6091 90.1646 24.3934 90.5918 24.0296C91.2347 23.4797 91.6915 22.528 91.9707 21.4283C92.0299 21.1829 92.3979 21.276 92.3979 21.4283C92.3387 22.2869 92.2753 23.2936 92.2753 24.9475C92.2753 26.6014 92.3345 27.7011 92.3979 28.5598C92.3979 28.712 92.0003 28.8051 91.9707 28.5598C91.7888 27.4896 91.1755 26.3856 90.6552 25.9288C90.2576 25.5608 89.3398 25.2859 88.0243 25.2859C86.3408 25.2859 86.0659 25.3155 85.9136 25.4085C85.8205 25.4678 85.7317 25.8654 85.7317 26.3264C85.7613 34.3123 85.9136 34.8326 86.1589 34.9553C86.5565 35.171 87.3517 35.3233 89.0648 35.3233C92.584 35.3233 93.4385 34.8664 94.3563 34.067C95.0585 33.4537 96.099 31.5883 96.6193 30.0571C96.6489 29.9641 97.1099 29.9345 97.0465 30.1502C96.7716 31.343 96.374 36.1185 96.1286 36.2073" fill="#1B1C1D"/>
<path d="M115.594 36.2031C113.483 36.11 111.461 36.0804 108.035 36.0804C104.609 36.0804 101.394 36.0804 99.6517 36.2327C99.4994 36.2327 99.4402 35.8985 99.6813 35.8351C100.447 35.6532 101.331 35.6532 101.699 35.4375C101.974 35.2852 102.13 34.49 102.13 25.2774C102.13 16.0649 101.978 15.2697 101.699 15.147C101.331 14.9017 100.447 14.9313 99.6813 14.7494C99.436 14.6902 99.4952 14.3222 99.6517 14.3518C100.477 14.4448 102.008 14.4745 103.628 14.4745C105.341 14.4745 107.177 14.4152 107.942 14.3518C108.128 14.3518 108.158 14.6902 107.913 14.7494C107.177 14.9313 106.352 14.9017 105.954 15.147C105.709 15.2993 105.557 16.0945 105.557 25.2774C105.557 34.4604 105.709 34.8538 105.954 34.9764C106.352 35.1921 107.177 35.3444 108.86 35.3444C111.398 35.3444 113.081 34.7649 114.058 33.8132C114.913 32.9884 115.649 31.03 116.169 29.4988C116.199 29.4057 116.66 29.3761 116.596 29.5919C116.321 30.7847 115.831 36.11 115.585 36.1988" fill="#1B1C1D"/>
</svg>
